<svg xmlns="http://www.w3.org/2000/svg" width="264" height="72" fill="none"><path fill="#19191C" d="m66.19 27.908 2.664-2.961c1.1 1.207 2.17 1.92 3.517 1.92 1.593 0 2.582-.96 2.582-3.181V11.32h4.34v12.558c0 2.276-.659 3.976-1.813 5.127-1.18 1.18-2.911 1.783-5 1.783-2.43.062-4.752-1-6.29-2.88"/><path fill="#19191C" fill-rule="evenodd" d="M80.392 23.192v.055c0 4.497 3.269 7.596 7.692 7.596a7.37 7.37 0 0 0 6.017-2.743l-2.39-2.111a4.83 4.83 0 0 1-3.572 1.508 3.414 3.414 0 0 1-3.599-2.88h10.247c.028-.383.055-.767.055-1.096 0-4.168-2.252-7.979-7.17-7.979-4.285 0-7.28 3.455-7.28 7.65m7.28-4.305c1.758 0 2.857 1.262 3.104 3.126h-6.291c.33-1.892 1.456-3.126 3.187-3.126" clip-rule="evenodd"/><path fill="#19191C" d="M96.575 26.346V19.38h-1.758v-3.565h1.758V12.06h4.176v3.756h3.461v3.565h-3.461v6.279c0 .96.412 1.426 1.346 1.426a4.26 4.26 0 0 0 2.06-.52v3.344a6.16 6.16 0 0 1-3.296.85c-2.556 0-4.286-1.014-4.286-4.414"/><path fill="#19191C" fill-rule="evenodd" d="M105.668 11.32h8.929c2.198 0 3.928.603 5.027 1.7a4.4 4.4 0 0 1 1.319 3.262v.055a4.46 4.46 0 0 1-2.527 4.14c2.225.85 3.598 2.14 3.598 4.717v.055c0 3.51-2.857 5.264-7.197 5.264h-9.149zm11.072 5.675c0-1.26-.989-1.974-2.775-1.974h-4.175v4.058h3.901c1.867 0 3.049-.603 3.049-2.029zm-6.95 5.594h4.889c2.171 0 3.132.795 3.132 2.084v.055c0 1.426-1.126 2.084-2.994 2.084h-5.027z" clip-rule="evenodd"/><path fill="#19191C" d="M123.005 15.816h4.176v2.961c.852-2.028 2.225-3.345 4.698-3.235v4.36h-.22c-2.775 0-4.478 1.672-4.478 5.182v5.43h-4.176z"/><path fill="#19191C" fill-rule="evenodd" d="M130.863 26.236v.055c0 2.906 2.28 4.497 5.055 4.497a5.67 5.67 0 0 0 4.451-1.865v1.59h4.038v-8.528c0-1.974-.494-3.591-1.593-4.688-1.044-1.042-2.693-1.646-4.973-1.646a13 13 0 0 0-5.714 1.18l1.044 3.18a10.9 10.9 0 0 1 4.066-.794c2.088 0 3.159.959 3.159 2.687v.246a10.5 10.5 0 0 0-3.599-.603c-3.489 0-5.934 1.48-5.934 4.689m9.588-1.646v.74c0 1.51-1.318 2.578-3.269 2.578-1.346 0-2.28-.658-2.28-1.782v-.055c0-1.316 1.099-2.029 2.885-2.029a6.5 6.5 0 0 1 2.664.548m9.973-14.093h-4.395v3.701h4.395zm-.11 5.32h-4.176v14.696h4.176z" clip-rule="evenodd"/><path fill="#19191C" d="M152.183 15.816h4.175V17.9c.962-1.234 2.198-2.358 4.313-2.358 3.16 0 5 2.084 5 5.457v9.514h-4.175v-8.198c0-1.974-.935-2.99-2.528-2.99s-2.61 1.016-2.61 2.99v8.198h-4.175zm13.901 12.751 1.786-2.742a8.34 8.34 0 0 0 4.643 1.754c1.209 0 1.758-.438 1.758-1.096v-.055c0-.905-1.429-1.207-3.049-1.7-2.06-.603-4.396-1.563-4.396-4.415v-.054c0-2.99 2.418-4.662 5.385-4.662 1.957.028 3.864.618 5.494 1.7l-1.593 2.879c-1.456-.85-2.912-1.371-3.984-1.371-1.016 0-1.538.439-1.538 1.015v.054c0 .823 1.401 1.207 2.995 1.755 2.06.686 4.45 1.673 4.45 4.36v.055c0 3.263-2.445 4.744-5.632 4.744a10.33 10.33 0 0 1-6.319-2.221M76.15 44.744h-8.922v-5.937h24.295v5.937h-8.922v23.33H76.15z"/><path fill="#19191C" fill-rule="evenodd" d="M90.768 53.44v.084c0 8.32 6.493 15.052 15.541 15.052s15.624-6.815 15.624-15.135v-.084c0-8.32-6.493-15.051-15.541-15.051S90.768 45.12 90.768 53.44m24.421 0v.084c0 5.018-3.602 9.115-8.797 9.115-5.193 0-8.88-4.181-8.88-9.198v-.084c0-5.017 3.602-9.114 8.797-9.114 5.194 0 8.88 4.18 8.88 9.198m8.042-.001v.084c0 8.32 6.493 15.052 15.541 15.052s15.625-6.815 15.625-15.135v-.084c0-8.32-6.493-15.051-15.541-15.051s-15.625 6.815-15.625 15.135m24.422 0v.084c0 5.018-3.603 9.115-8.797 9.115s-8.88-4.181-8.88-9.198v-.084c0-5.017 3.602-9.114 8.796-9.114s8.881 4.18 8.881 9.198" clip-rule="evenodd"/><path fill="#19191C" d="M156.993 38.807h6.45v23.414h14.62v5.853h-21.07z"/><path fill="#19191C" fill-rule="evenodd" d="M179.779 38.807h13.614c3.351 0 5.99.92 7.666 2.593a6.7 6.7 0 0 1 2.01 4.975v.084c0 3.302-1.759 5.142-3.853 6.313 3.392 1.296 5.487 3.261 5.487 7.191v.084c0 5.351-4.357 8.027-10.975 8.027h-13.949zm16.882 8.655c0-1.923-1.508-3.01-4.231-3.01h-6.367v6.187h5.948c2.848 0 4.649-.919 4.649-3.093zm-10.599 8.529h7.456c3.309 0 4.776 1.213 4.776 3.178v.083c0 2.174-1.718 3.178-4.566 3.178h-7.666zm19.518-2.551v.084c0 8.32 6.493 15.052 15.541 15.052s15.624-6.815 15.624-15.135v-.084c0-8.32-6.493-15.051-15.54-15.051-9.048 0-15.625 6.815-15.625 15.135m24.421 0v.084c0 5.018-3.602 9.115-8.797 9.115-5.193 0-8.88-4.181-8.88-9.198v-.084c0-5.017 3.602-9.114 8.797-9.114 5.194 0 8.88 4.18 8.88 9.198" clip-rule="evenodd"/><path fill="#19191C" d="m262.675 38.807-9.802 14.3 10.22 14.967h-7.539l-6.577-10.034-6.618 10.034h-7.331l10.221-14.884-9.802-14.383h7.54l6.115 9.491 6.242-9.49zM26.553 64.218l26.552-15.325V18.268L26.553 33.593z"/><path fill="#fff" d="m43.292 48.94-11.57 6.64v-4.234l11.57-6.64z"/><path fill="url(#a)" d="M26.552 3 0 18.267v30.626l26.552 15.325V33.592l26.553-15.324z"/><defs><linearGradient id="a" x1="12.19" x2="67.461" y1="77.762" y2="56.198" gradientUnits="userSpaceOnUse"><stop offset=".043" stop-color="#FF8618"/><stop offset=".382" stop-color="#FF246E"/><stop offset=".989" stop-color="#AF1DF5"/></linearGradient></defs></svg>