<svg xmlns="http://www.w3.org/2000/svg" width="20" height="20" fill="none"><path fill="#6C707E" fill-rule="evenodd" d="M14 5a4 4 0 1 1-8 0 4 4 0 0 1 8 0m-1.5 0a2.5 2.5 0 1 1-5 0 2.5 2.5 0 0 1 5 0" clip-rule="evenodd"/><path fill="#6C707E" d="M10 10c1.418 0 2.567.286 3.5.75v1.746c-.808-.585-1.922-.996-3.5-.996-2.268 0-3.577.849-4.397 1.843-.798.966-1.21 2.168-1.416 3.157H10V18H4c-.829 0-1.489-.673-1.343-1.489C3.07 14.197 4.567 10 10 10"/><path fill="#6C707E" d="M16.5 12.25a.75.75 0 0 0-1.5 0V15h-2.75a.75.75 0 0 0 0 1.5H15v2.75a.75.75 0 0 0 1.5 0V16.5h2.75a.75.75 0 0 0 0-1.5H16.5z"/></svg>