<svg xmlns="http://www.w3.org/2000/svg" width="24" height="24"><path d="M23.566 10.656c.54-1.25.528-2.48.196-3.457-.407-1.199-2.075-2.773-2.61-2.148-.07.086-1.03-.028-1.183.18-.227.3-.098.398.015.5.336.3 1.203.632 1.582 1.652.164.43.543 1.441-.113 2.047-.75.683-1.59.84-5.027-2.36-3.66-3.414-8.59-2.02-10.215-1.484-1.633.543-2.379 1.078-1.738 2.34.875 1.71.59 1.183 1.433 2.594 1.348 2.246 4.297-1.036 4.297-1.036-2.195 3.309-4.078 2.504-4.805 1.356-.64-1.047-1.16-2.246-1.16-2.246C-1.32 10.605.184 19.46.184 19.46h2.761c.707-3.258 3.223-3.137 3.653 0h2.109c1.86-6.367 5.852 0 5.852 0h2.375c0-3.395-.356-4.676 1.382-4.91 2.973-.406 4.352-1.797 5.254-3.887Zm0 0" style="stroke:none;fill-rule:evenodd;fill:#dbe1e5;fill-opacity:1"/><path d="M23.992 8.352q-.756.064-1.488.257c-.016.02-.024.036-.043.063-.215.242-.48.48-.793.613a1 1 0 0 1-.121.059c-.027.027-.05.062-.09.086-.75.683-1.656.84-5.027-2.36C12.8 3.633 7.848 5.06 6.215 5.594S3.84 6.664 4.477 7.926c.875 1.71.59 1.183 1.437 2.594 1.348 2.246 4.293-1.036 4.293-1.036-2.195 3.309-4.078 2.504-4.805 1.356-.64-1.047-1.156-2.246-1.156-2.246C-1.32 10.605.184 19.46.184 19.46h2.761c.707-3.258 3.223-3.137 3.653 0h2.109c1.86-6.367 5.852 0 5.852 0h2.375c0-3.395-.356-4.676 1.382-4.91 2.961-.406 4.344-1.79 5.243-3.887a4.96 4.96 0 0 0 .433-2.309Zm0 0" style="stroke:none;fill-rule:evenodd;fill:#dbe1e5;fill-opacity:1"/><path d="m13.95 9.242 2.991.992c-.097.457-.953 1.34-2.058.97-1.45-.485-.934-1.962-.934-1.962m0 0" style="stroke:none;fill-rule:evenodd;fill:#fff;fill-opacity:1"/><path d="M16.176 10.086c-.043-.41-.422-.703-.844-.66-.422.047-.73.414-.687.82.043.41.421.703.843.66.422-.047.73-.414.688-.82m3.82-4.352c.094.086.215.164.336.243.582-.477 1.324-.47 1.945-.727-.562-.52-1.445-.918-1.726-.578-.07.086-.414.351-.578.558-.227.305-.094.399.015.504Zm0 0" style="stroke:none;fill-rule:evenodd;fill:#dbe1e5;fill-opacity:1"/></svg>