<svg xmlns="http://www.w3.org/2000/svg" width="20" height="20" fill="none"><path fill="#6C707E" d="M10.75 2a.75.75 0 0 0-1.5 0v2.298a5.8 5.8 0 0 1 1.5 0zm2.751 3.438c.398.306.755.663 1.06 1.061l1.627-1.626a.75.75 0 0 0-1.061-1.06zm2.201 3.812a5.8 5.8 0 0 1 0 1.5H18a.75.75 0 0 0 0-1.5zm-1.14 4.25a5.8 5.8 0 0 1-1.06 1.062l1.625 1.625a.75.75 0 0 0 1.06-1.06zm-3.812 2.202a5.8 5.8 0 0 1-1.5 0V18a.75.75 0 0 0 1.5 0zm-4.25-1.14a5.8 5.8 0 0 1-1.062-1.06l-1.625 1.624a.75.75 0 0 0 1.06 1.061zM4.298 10.75a5.8 5.8 0 0 1 0-1.5H2a.75.75 0 1 0 0 1.5zm1.14-4.251A5.8 5.8 0 0 1 6.5 5.439L4.874 3.812a.75.75 0 0 0-1.06 1.06z"/><path fill="#6C707E" fill-rule="evenodd" d="M14.5 10a4.5 4.5 0 1 1-9 0 4.5 4.5 0 0 1 9 0M10 13a3 3 0 1 0 0-6 3 3 0 0 0 0 6" clip-rule="evenodd"/></svg>