<svg xmlns="http://www.w3.org/2000/svg" width="16" height="16" fill="none"><g clip-path="url(#a)"><path fill="#548AF7" d="M8.5 1a.5.5 0 0 0-1 0v2.025a5 5 0 0 1 1 0zM3.404 2.697l1.432 1.432a5 5 0 0 0-.707.707L2.697 3.404a.5.5 0 0 1 .707-.707M3.025 7.5H1a.5.5 0 0 0 0 1h2.025a5 5 0 0 1 0-1m-.328 5.096 1.432-1.432q.318.39.707.707l-1.432 1.432a.5.5 0 1 1-.707-.707m4.803.379V15a.5.5 0 0 0 1 0v-2.025a5 5 0 0 1-1 0m5.096.328-1.432-1.432q.39-.317.707-.707l1.432 1.432a.5.5 0 1 1-.707.707m.379-4.803H15a.5.5 0 0 0 0-1h-2.025a5 5 0 0 1 0 1m.328-5.096-1.432 1.432a5 5 0 0 0-.707-.707l1.432-1.432a.5.5 0 1 1 .707.707"/><path fill="#548AF7" fill-rule="evenodd" d="M12 8a4 4 0 1 1-8 0 4 4 0 0 1 8 0m-1 0a3 3 0 1 1-6 0 3 3 0 0 1 6 0" clip-rule="evenodd"/><circle cx="8" cy="8" r="3" fill="#25324D"/></g><defs><clipPath id="a"><path fill="#fff" d="M0 0h16v16H0z"/></clipPath></defs></svg>