<svg xmlns="http://www.w3.org/2000/svg" width="20" height="20" fill="none"><g clip-path="url(#a)"><g clip-path="url(#b)"><path stroke="#6C707E" stroke-width="1.5" d="M6.77 8.036c1.168-1.16 1.995-2.613 2.605-4.42.61 1.807 1.437 3.26 2.605 4.42 1.167 1.158 2.633 1.98 4.46 2.589-1.827.608-3.293 1.43-4.46 2.589-1.168 1.16-1.995 2.613-2.605 4.42-.61-1.807-1.437-3.26-2.605-4.42-1.167-1.158-2.633-1.98-4.46-2.59 1.827-.607 3.293-1.43 4.46-2.588Z"/><path fill="#6C707E" d="M16.241 6.134a2.38 2.38 0 1 0 0-4.762 2.38 2.38 0 0 0 0 4.762"/></g></g><defs><clipPath id="a"><path fill="#fff" d="M0 0h20v20H0z"/></clipPath><clipPath id="b"><path fill="#fff" d="M0 0h20v20H0z"/></clipPath></defs></svg>