<svg xmlns="http://www.w3.org/2000/svg" width="20" height="20" fill="none"><path fill="#6C707E" fill-rule="evenodd" d="M3.964 5.548a7.5 7.5 0 0 0-.838 1.449l1.024 1.73a2.5 2.5 0 0 1 0 2.547l-1.024 1.73a7.5 7.5 0 0 0 .838 1.448l2.008-.022a2.5 2.5 0 0 1 2.206 1.274l.985 1.75a7.6 7.6 0 0 0 1.675 0l.985-1.75a2.5 2.5 0 0 1 2.206-1.274l2.008.022q.498-.673.839-1.449l-1.024-1.73a2.5 2.5 0 0 1 0-2.547l1.024-1.73a7.5 7.5 0 0 0-.839-1.448l-2.008.022a2.5 2.5 0 0 1-2.206-1.274l-.985-1.75a7.6 7.6 0 0 0-1.675 0l-.985 1.75A2.5 2.5 0 0 1 5.972 5.57zM13.624 10a3.623 3.623 0 1 1-7.246 0 3.623 3.623 0 0 1 7.245 0M5.988 4.07a1 1 0 0 0 .882-.51l1.117-1.983a.94.94 0 0 1 .675-.478 9 9 0 0 1 2.675 0 .94.94 0 0 1 .676.478L13.13 3.56a1 1 0 0 0 .883.51l2.275-.025c.29-.003.57.118.75.345a9 9 0 0 1 1.341 2.317.94.94 0 0 1-.076.824l-1.16 1.96a1 1 0 0 0 0 1.018l1.16 1.96a.94.94 0 0 1 .076.824 9 9 0 0 1-1.34 2.317.94.94 0 0 1-.751.345l-2.275-.025a1 1 0 0 0-.883.51l-1.116 1.983a.94.94 0 0 1-.676.478 9 9 0 0 1-2.675 0 .94.94 0 0 1-.675-.478L6.87 16.44a1 1 0 0 0-.882-.51l-2.275.025a.94.94 0 0 1-.751-.345 9 9 0 0 1-1.34-2.317.94.94 0 0 1 .076-.824l1.16-1.96a1 1 0 0 0 0-1.018L1.7 7.53a.94.94 0 0 1-.077-.824 9 9 0 0 1 1.34-2.317.94.94 0 0 1 .752-.345zM12.123 10a2.123 2.123 0 1 1-4.245 0 2.123 2.123 0 0 1 4.245 0" clip-rule="evenodd"/></svg>