<svg xmlns="http://www.w3.org/2000/svg" width="16" height="16" fill="none"><path fill="#EBECF0" d="M1 3.867C1 2.836 1.784 2 2.75 2h3.288a1 1 0 0 1 .698.283L8.5 4H13a2 2 0 0 1 2 2v1.39A5.5 5.5 0 0 0 6.875 14H2.75C1.784 14 1 13.164 1 12.133z"/><path fill="#6C707E" d="m6.038 3 2.056 2H13a1 1 0 0 1 1 1v.875q.53.208 1 .514V6a2 2 0 0 0-2-2H8.5L6.736 2.283A1 1 0 0 0 6.038 2H2.75C1.784 2 1 2.836 1 3.867v8.266C1 13.164 1.784 14 2.75 14h4.125a5.5 5.5 0 0 1-.284-1H2.75c-.354 0-.75-.326-.75-.867V3.867c0-.54.396-.867.75-.867z"/><path fill="#3574F0" d="M12 13a1 1 0 1 0 0-2 1 1 0 0 0 0 2"/><path fill="#3574F0" fill-rule="evenodd" d="M13.122 15.676a.5.5 0 0 1-.469.324h-1.307a.5.5 0 0 1-.468-.324l-.25-.666a.5.5 0 0 0-.55-.317l-.7.116a.5.5 0 0 1-.515-.243l-.654-1.132a.5.5 0 0 1 .047-.568l.451-.548a.5.5 0 0 0 0-.636l-.451-.548a.5.5 0 0 1-.047-.568l.654-1.132a.5.5 0 0 1 .515-.243l.7.116a.5.5 0 0 0 .55-.317l.25-.666A.5.5 0 0 1 11.346 8h1.307a.5.5 0 0 1 .469.324l.25.666a.5.5 0 0 0 .55.317l.7-.116a.5.5 0 0 1 .515.243l.654 1.132a.5.5 0 0 1-.047.568l-.451.548a.5.5 0 0 0 0 .636l.45.548a.5.5 0 0 1 .048.568l-.654 1.132a.5.5 0 0 1-.515.243l-.7-.116a.5.5 0 0 0-.55.317zM11.692 15h.615l.128-.34a1.5 1.5 0 0 1 1.65-.954l.36.06.306-.532-.23-.281a1.5 1.5 0 0 1 0-1.906l.23-.281-.306-.532-.36.06a1.5 1.5 0 0 1-1.65-.953L12.307 9h-.614l-.128.34a1.5 1.5 0 0 1-1.65.954l-.36-.06-.307.532.232.281a1.5 1.5 0 0 1 0 1.906l-.232.281.307.532.36-.06a1.5 1.5 0 0 1 1.65.953z" clip-rule="evenodd"/><path fill="#E7EFFD" fill-rule="evenodd" d="M12.307 15h-.614l-.128-.34a1.5 1.5 0 0 0-1.65-.954l-.36.06-.307-.532.232-.281a1.5 1.5 0 0 0 0-1.906l-.232-.281.307-.532.36.06a1.5 1.5 0 0 0 1.65-.953L11.693 9h.614l.128.34a1.5 1.5 0 0 0 1.65.954l.36-.06.306.532-.23.281a1.5 1.5 0 0 0 0 1.906l.23.281-.306.532-.36-.06a1.5 1.5 0 0 0-1.65.953zM13 12a1 1 0 1 1-2 0 1 1 0 0 1 2 0" clip-rule="evenodd"/></svg>