<svg xmlns="http://www.w3.org/2000/svg" width="16" height="16"><g fill="none" fill-rule="evenodd"><rect width="14" height="10" x="1" y="3" stroke="#CED0D6" stroke-linecap="round" rx="2"/><path fill="#CED0D6" d="M4.992 11C3.23 11 2 9.65 2 8.017V8c0-1.633 1.246-3 3.008-3S8 6.35 8 7.983V8c0 1.633-1.246 3-3.008 3m.016-.945c1.14 0 1.935-.911 1.935-2.038V8c0-1.127-.812-2.055-1.951-2.055s-1.935.911-1.935 2.038V8c0 1.127.812 2.055 1.951 2.055M8.5 11V5h1.054v3.017L12.4 5h1.311l-2.502 2.58L13.823 11h-1.286l-2.048-2.7-.935.96V11z"/></g></svg>