<svg xmlns="http://www.w3.org/2000/svg" xml:space="preserve" width="800" height="800" viewBox="0 0 437.611 437.611"><path d="M218.794 113.846c57.37 0 103.868 46.499 103.868 103.862 0 57.357-46.498 103.855-103.868 103.855-57.358 0-103.862-46.498-103.862-103.855 0-57.364 46.504-103.862 103.862-103.862"/><path d="M218.794 0c-27.26 0-53.271 5.237-77.349 14.386 5.26 5.342 9.61 11.56 12.95 18.38 20.219-7.036 41.839-11.041 64.411-11.041 108.667 0 197.062 88.425 197.062 197.069S327.472 415.88 218.794 415.88c-108.655 0-197.057-88.431-197.057-197.074 0-36.602 10.211-70.775 27.657-100.178-5.979-4.577-11.251-10.065-15.473-16.318C12.553 136.085 0 175.962 0 218.806c0 120.647 98.146 218.806 218.794 218.806 120.659 0 218.817-98.158 218.817-218.806S339.453 0 218.794 0"/><path d="M91.759 20.447c24.767 0 44.84 20.073 44.84 44.84s-20.073 44.84-44.84 44.84c-24.761 0-44.84-20.073-44.84-44.84s20.079-44.84 44.84-44.84"/></svg>